<?xml version="1.0" encoding="utf-8"?>
<!-- Generator: Adobe Illustrator 26.1.0, SVG Export Plug-In . SVG Version: 6.00 Build 0)  -->
<svg version="1.1" id="Слой_1" xmlns="http://www.w3.org/2000/svg" xmlns:xlink="http://www.w3.org/1999/xlink" x="0px" y="0px"
	 viewBox="0 0 512 512" style="enable-background:new 0 0 512 512;" xml:space="preserve">
<style type="text/css">
	.st0{opacity:0.03;}
</style>
<g class="st0">
	<path d="M139.07,83.06l0.75,0.19c3.71,0.93,6.26,3.59,7.66,7.98c0.35,1.87,0.35,3.5-0.01,4.9l-4.41,17.57l17.57,4.41
		c3.66,0.92,6.24,3.59,7.72,8c0.35,1.87,0.34,3.52-0.02,4.97l-0.12,0.47c-0.91,3.62-3.48,6.19-7.71,7.73
		c-2.04,0.45-3.8,0.49-5.29,0.11l-17.5-4.4l-4.45,17.7c-0.93,3.71-3.6,6.31-8.01,7.79c-1.88,0.39-3.52,0.41-4.92,0.06l-0.61-0.15
		c-3.66-0.92-6.24-3.59-7.72-8c-0.39-1.88-0.41-3.54-0.04-4.99l4.46-17.77l-17.77-4.46c-3.62-0.91-6.19-3.48-7.73-7.71
		c-0.45-2.04-0.48-3.82-0.1-5.36l0.12-0.47c0.92-3.66,3.59-6.24,8-7.72c1.88-0.39,3.54-0.41,4.99-0.05l17.84,4.48l4.43-17.63
		c0.99-3.93,3.88-6.55,8.68-7.84C136.49,82.7,137.89,82.76,139.07,83.06z"/>
</g>
<g class="st0">
	<path d="M244.49,110.75l44.43-12.58c3.08-0.87,6.01,0.08,8.79,2.85c0.76,1.05,1.26,2.02,1.51,2.9l0.18,0.64
		c0.83,2.94-0.06,5.8-2.68,8.57c-1.09,0.88-2.13,1.46-3.12,1.74l-44.32,12.54c-2.91,0.82-5.74,0.02-8.49-2.42
		c-1.01-1.13-1.67-2.26-1.99-3.4l-0.12-0.43c-0.81-2.87,0-5.68,2.43-8.44C242.22,111.74,243.35,111.07,244.49,110.75z"/>
</g>
<g class="st0">
	<path d="M337.8,365.21h1.4c3.02,0,6.04,0.95,9.06,2.85c4.41,3.24,6.62,7.55,6.62,12.95c0,5-1.9,9.37-5.7,13.12
		c-2.57,2.11-5.08,3.37-7.54,3.77c-0.86,0.16-1.59,0.24-2.21,0.24h-1.2c-2.3,0-4.61-1.07-6.94-3.21c-1.66-1.71-2.82-3.44-3.49-5.17
		c-1.23-2.91-1.84-5.9-1.84-8.94v-0.72c0-4.73,1.47-8.62,4.41-11.67c1.76-1.52,3.37-2.45,4.81-2.77
		C336.26,365.36,337.13,365.21,337.8,365.21z M339,377.84c-0.29,0.75-0.44,1.63-0.44,2.65c0,1.74,0.39,3.36,1.16,4.85h0.04
		c0.94-0.4,1.63-1.16,2.09-2.29c0.27-0.67,0.4-1.32,0.4-1.97v-0.16c0-1.34-0.51-2.23-1.52-2.69
		C339.98,377.98,339.4,377.84,339,377.84z M369.64,365.25h0.4c2.33,0,4.18,1.24,5.58,3.73c0.32,0.88,0.48,1.66,0.48,2.33v0.48
		c0,1.15-0.68,3-2.05,5.53c-12.94,27.33-19.67,41.43-20.17,42.31c-1.39,1.95-3.09,2.93-5.09,2.93h-0.44c-2.35,0-4.21-1.24-5.57-3.73
		c-0.35-0.88-0.52-1.66-0.52-2.33v-0.36c0-1.1,0.56-2.7,1.68-4.81c13.29-27.97,20.12-42.31,20.49-43.04
		C365.85,366.27,367.58,365.25,369.64,365.25z M379.67,389.76c3.42,0,6.44,1.7,9.06,5.09c2.51,3.72,3.77,7.94,3.77,12.67
		c0,5.32-1.67,9.48-5.01,12.47c-2.3,1.85-4.77,2.77-7.42,2.77h-0.36c-3.72,0-7.22-1.2-10.51-3.61c-2.01-1.92-3.12-3.21-3.33-3.85
		c-1.52-2.57-2.29-5.27-2.29-8.1v-0.44c0-4.46,1.64-8.53,4.93-12.19C371.81,391.36,375.52,389.76,379.67,389.76z M376.14,407
		c0,1.74,0.91,2.77,2.73,3.09l0.6,0.04c0.29-0.7,0.44-1.6,0.44-2.73c0-1.76-0.39-3.37-1.16-4.81c-0.64,0-1.34,0.71-2.09,2.13
		C376.31,405.38,376.14,406.15,376.14,407z"/>
</g>
<g class="st0">
	<path d="M205.6,232.19h0.38c2.62,0,4.84,1.62,6.66,4.87c3.67,5.5,5.59,8.33,5.77,8.5h0.09c5.18-6.15,8.13-9.59,8.84-10.34
		c1.42-1.05,2.82-1.58,4.19-1.58h0.34c2.31,0,4.23,1.17,5.77,3.5c0.48,1.08,0.73,2.06,0.73,2.95v0.47c0,1.88-0.97,3.79-2.9,5.72
		c-0.17,0.26-3.23,3.9-9.18,10.93v0.17c5.49,8.11,8.43,12.54,8.8,13.28c0.31,0.88,0.47,1.67,0.47,2.35v0.55
		c0,2.48-1.31,4.46-3.93,5.94c-0.97,0.34-1.81,0.51-2.52,0.51h-0.38c-2.62,0-4.77-1.52-6.45-4.57c-3.13-4.61-4.83-7.09-5.08-7.43
		l-9.01,10.55c-1.45,1.37-3,2.05-4.66,2.05h-0.3c-2.31,0-4.23-1.2-5.77-3.59c-0.51-1.05-0.77-2.04-0.77-2.95v-0.34
		c0-1.85,0.97-3.76,2.9-5.72c6.01-7.15,9.28-11.05,9.82-11.7c-6.06-9.05-9.25-13.85-9.57-14.39c-0.46-0.94-0.68-1.86-0.68-2.78
		v-0.51c0-2.48,1.31-4.44,3.93-5.89C204.04,232.37,204.88,232.19,205.6,232.19z"/>
</g>
<g class="st0">
	<path d="M388.72,102.07c4.1,0,7.29,1.91,9.58,5.72c0.88,1.85,1.33,3.57,1.33,5.18c0,6.71-0.06,29.18-0.18,67.41
		c0,2.57-1.17,4.96-3.49,7.17c-2.01,1.41-3.94,2.11-5.78,2.11h-0.48c-3.37,0-6.12-1.79-8.25-5.36c-0.6-1.45-0.9-2.65-0.9-3.61
		c0.08-25.46,0.12-41.84,0.12-49.15c0.08-2.65,0.12-4.18,0.12-4.58c-0.12,0-0.18-0.04-0.18-0.12c-0.24,0.12-0.68,0.18-1.33,0.18
		h-0.72c-3.49,0-6.26-1.87-8.31-5.6c-0.52-1.33-0.78-2.49-0.78-3.49v-0.54c0-3.29,1.89-6.26,5.66-8.91
		C380.21,104.2,384.75,102.07,388.72,102.07z"/>
</g>
<g class="st0">
	<path d="M182.1,334.61c7.96,3.31,14.02,9.64,18.17,18.98c2.7,6.98,2.59,14-0.34,21.06c-5.15,12.4-19.44,24.13-42.87,35.2
		l-0.08,0.19c10.92,4.34,17.37,6.91,19.35,7.74c3.01,1.25,5.04,3.91,6.08,7.98c0.36,2.17,0.18,4.12-0.53,5.84l-0.21,0.52
		c-1.38,3.32-4.23,5.44-8.55,6.37c-2.18,0.26-4,0.08-5.46-0.53c-1.94-0.8-17.08-6.82-45.44-18.04c-1.64-0.68-3.25-2.33-4.83-4.96
		c-1.41-3.16-1.56-6.1-0.43-8.81l0.27-0.65c1.34-3.23,4.36-5.46,9.06-6.69c11.41-4.25,19.67-7.73,24.79-10.45
		c10.41-5.37,17.68-10,21.82-13.88c3.48-3.15,5.7-5.89,6.67-8.21l0.19-0.45c0.82-1.98,0.46-4.02-1.09-6.13
		c-1.44-2.36-3.07-3.92-4.87-4.67l-0.45-0.19c-4.09-1.7-10.12-0.49-18.09,3.62c-4.49,3.28-8.64,4.14-12.42,2.56l-0.39-0.16
		c-3.45-1.43-5.61-4.35-6.51-8.76c-0.15-2.08,0.09-3.85,0.69-5.32l0.16-0.39c1.25-3.01,4.61-5.76,10.08-8.23
		C160.02,331.5,171.77,330.32,182.1,334.61z"/>
</g>
<g class="st0">
	<path d="M384.98,245.88l57.53,10.43c3.99,0.72,6.79,3.43,8.4,8.13c0.28,1.61,0.31,2.99,0.1,4.14l-0.15,0.83
		c-0.69,3.81-3.3,6.56-7.82,8.25c-1.73,0.4-3.24,0.48-4.52,0.25l-57.39-10.4c-3.76-0.68-6.53-3.17-8.31-7.48
		c-0.52-1.85-0.64-3.5-0.38-4.97l0.1-0.55c0.67-3.72,3.16-6.46,7.46-8.24C381.86,245.74,383.51,245.61,384.98,245.88z M379.99,273.4
		l57.53,10.43c3.99,0.72,6.79,3.43,8.4,8.13c0.28,1.61,0.31,2.99,0.1,4.14l-0.15,0.83c-0.69,3.81-3.3,6.56-7.82,8.25
		c-1.73,0.4-3.24,0.48-4.52,0.25l-57.39-10.4c-3.76-0.68-6.53-3.17-8.31-7.48c-0.52-1.85-0.64-3.5-0.38-4.97l0.1-0.55
		c0.67-3.72,3.16-6.46,7.46-8.24C376.87,273.26,378.52,273.13,379.99,273.4z"/>
</g>
<g class="st0">
	<path d="M22.29,483.22h1.4c3.02,0,6.04,0.95,9.06,2.85c4.41,3.24,6.62,7.55,6.62,12.95c0,5-1.9,9.37-5.7,13.12
		c-2.57,2.11-5.08,3.37-7.54,3.77c-0.86,0.16-1.59,0.24-2.21,0.24h-1.2c-2.3,0-4.61-1.07-6.94-3.21c-1.66-1.71-2.82-3.44-3.49-5.17
		c-1.23-2.91-1.84-5.9-1.84-8.94v-0.72c0-4.73,1.47-8.62,4.41-11.67c1.76-1.52,3.37-2.45,4.81-2.77
		C20.75,483.37,21.62,483.22,22.29,483.22z M23.49,495.86c-0.29,0.75-0.44,1.63-0.44,2.65c0,1.74,0.39,3.36,1.16,4.85h0.04
		c0.94-0.4,1.63-1.16,2.09-2.29c0.27-0.67,0.4-1.32,0.4-1.97v-0.16c0-1.34-0.51-2.23-1.52-2.69
		C24.47,495.99,23.89,495.86,23.49,495.86z M54.13,483.26h0.4c2.33,0,4.18,1.24,5.57,3.73c0.32,0.88,0.48,1.66,0.48,2.33v0.48
		c0,1.15-0.68,3-2.05,5.53c-12.94,27.33-19.67,41.43-20.17,42.31c-1.39,1.95-3.09,2.93-5.09,2.93h-0.44c-2.35,0-4.21-1.24-5.57-3.73
		c-0.35-0.88-0.52-1.66-0.52-2.33v-0.36c0-1.1,0.56-2.7,1.68-4.81c13.29-27.97,20.12-42.31,20.49-43.04
		C50.33,484.28,52.07,483.26,54.13,483.26z M64.16,507.77c3.42,0,6.44,1.7,9.06,5.09c2.51,3.72,3.77,7.94,3.77,12.67
		c0,5.32-1.67,9.48-5.01,12.47c-2.3,1.85-4.77,2.77-7.42,2.77H64.2c-3.72,0-7.22-1.2-10.51-3.61c-2.01-1.92-3.12-3.21-3.33-3.85
		c-1.52-2.57-2.29-5.27-2.29-8.1v-0.44c0-4.46,1.64-8.53,4.93-12.19C56.3,509.37,60.01,507.77,64.16,507.77z M60.63,525.01
		c0,1.74,0.91,2.77,2.73,3.09l0.6,0.04c0.29-0.7,0.44-1.6,0.44-2.73c0-1.76-0.39-3.37-1.16-4.81c-0.64,0-1.34,0.71-2.09,2.13
		C60.8,523.4,60.63,524.16,60.63,525.01z"/>
</g>
<g class="st0">
	<path d="M118.54-74.03c7.96,3.31,14.02,9.64,18.17,18.98c2.7,6.98,2.59,14-0.34,21.06c-5.15,12.4-19.44,24.13-42.87,35.2L93.42,1.4
		c10.92,4.34,17.37,6.91,19.35,7.74c3.01,1.25,5.04,3.91,6.08,7.98c0.36,2.17,0.18,4.12-0.53,5.84l-0.21,0.52
		c-1.38,3.32-4.23,5.44-8.55,6.37c-2.18,0.26-4,0.08-5.46-0.53c-1.94-0.8-17.08-6.82-45.44-18.04c-1.64-0.68-3.25-2.33-4.83-4.96
		c-1.41-3.16-1.56-6.1-0.43-8.81l0.27-0.65C55-6.37,58.02-8.6,62.72-9.83c11.41-4.25,19.67-7.73,24.79-10.45
		c10.41-5.37,17.68-10,21.82-13.88c3.48-3.15,5.7-5.89,6.67-8.21l0.19-0.45c0.82-1.98,0.46-4.02-1.09-6.13
		c-1.44-2.36-3.07-3.92-4.87-4.67l-0.45-0.19c-4.09-1.7-10.12-0.49-18.09,3.62c-4.49,3.28-8.64,4.14-12.42,2.56l-0.39-0.16
		c-3.45-1.43-5.61-4.35-6.51-8.76c-0.15-2.08,0.09-3.85,0.69-5.32l0.16-0.39c1.25-3.01,4.61-5.76,10.08-8.23
		C96.46-77.14,108.21-78.32,118.54-74.03z"/>
</g>
<g class="st0">
	<path d="M444.03,466.28l44.43-12.58c3.08-0.87,6.01,0.08,8.79,2.85c0.76,1.05,1.26,2.02,1.51,2.9l0.18,0.64
		c0.83,2.94-0.06,5.8-2.68,8.57c-1.09,0.88-2.13,1.46-3.12,1.74l-44.32,12.54c-2.91,0.82-5.74,0.02-8.49-2.42
		c-1.01-1.13-1.67-2.26-1.99-3.4l-0.12-0.43c-0.81-2.87,0-5.68,2.43-8.44C441.76,467.27,442.89,466.6,444.03,466.28z"/>
</g>
<g class="st0">
	<path d="M30.18,241.02l40.83-4.91c2.83-0.34,5.28,0.9,7.33,3.73c0.52,1.03,0.83,1.95,0.93,2.76l0.07,0.59
		c0.32,2.7-0.86,5.09-3.55,7.16c-1.08,0.63-2.08,0.99-2.99,1.1l-40.74,4.89c-2.67,0.32-5.05-0.78-7.14-3.3
		c-0.73-1.13-1.16-2.22-1.28-3.26l-0.05-0.39c-0.32-2.64,0.79-5,3.31-7.09C28.04,241.57,29.13,241.14,30.18,241.02z M32.52,260.56
		l40.83-4.91c2.83-0.34,5.28,0.9,7.33,3.73c0.52,1.03,0.83,1.95,0.93,2.76l0.07,0.59c0.32,2.7-0.86,5.09-3.55,7.16
		c-1.08,0.63-2.08,0.99-2.99,1.1l-40.74,4.89c-2.67,0.32-5.05-0.78-7.14-3.31c-0.73-1.13-1.16-2.22-1.28-3.26l-0.05-0.39
		c-0.32-2.64,0.79-5,3.31-7.09C30.39,261.11,31.48,260.68,32.52,260.56z"/>
</g>
<g class="st0">
	<path d="M381.02,39.76l1.02-0.97c2.18-2.09,5.03-3.49,8.52-4.2c5.43-0.71,10,0.89,13.73,4.8c3.45,3.62,5.1,8.09,4.94,13.42
		c-0.4,3.3-1.35,5.95-2.85,7.93c-0.51,0.71-0.98,1.27-1.43,1.7l-0.87,0.83c-1.66,1.59-4.07,2.41-7.23,2.47
		c-2.38-0.09-4.41-0.54-6.1-1.33c-2.9-1.26-5.41-2.99-7.51-5.19l-0.5-0.52c-3.27-3.42-4.89-7.25-4.87-11.49
		c0.22-2.32,0.75-4.1,1.57-5.33C380,40.93,380.53,40.22,381.02,39.76z M390.61,48.06c0.3,0.75,0.81,1.48,1.51,2.22
		c1.2,1.26,2.6,2.16,4.19,2.71l0.03-0.03c0.4-0.94,0.38-1.97-0.07-3.09c-0.27-0.67-0.62-1.23-1.07-1.7l-0.11-0.12
		c-0.92-0.97-1.91-1.26-2.96-0.89C391.41,47.49,390.9,47.79,390.61,48.06z M404.08,17.79l0.29-0.28c1.68-1.61,3.88-1.99,6.61-1.15
		c0.84,0.42,1.49,0.87,1.95,1.35l0.33,0.35c0.79,0.83,1.58,2.64,2.34,5.42c9.51,28.7,14.39,43.55,14.63,44.54
		c0.34,2.37-0.21,4.25-1.66,5.64l-0.32,0.3c-1.7,1.63-3.9,2.01-6.61,1.15c-0.86-0.4-1.52-0.84-1.98-1.32l-0.25-0.26
		c-0.76-0.79-1.46-2.34-2.11-4.64c-9.7-29.4-14.67-44.5-14.9-45.28C402.03,21.15,402.59,19.22,404.08,17.79z M428.25,28.59
		c2.48-2.36,5.83-3.22,10.07-2.58c4.38,0.95,8.21,3.14,11.48,6.56c3.67,3.85,5.34,8.01,4.99,12.48c-0.39,2.92-1.54,5.3-3.46,7.13
		l-0.26,0.25c-2.69,2.57-6.05,4.12-10.09,4.65c-2.78-0.01-4.47-0.17-5.07-0.49c-2.87-0.8-5.29-2.23-7.25-4.28l-0.3-0.32
		c-3.08-3.23-4.7-7.3-4.85-12.23C423.67,35.18,425.25,31.46,428.25,28.59z M437.61,43.5c1.2,1.26,2.57,1.37,4.11,0.35l0.46-0.39
		c-0.27-0.71-0.79-1.47-1.56-2.28c-1.22-1.28-2.61-2.17-4.16-2.68c-0.46,0.44-0.48,1.44-0.04,2.98
		C436.62,42.21,437.02,42.89,437.61,43.5z"/>
</g>
</svg>
